<?xml version="1.0" encoding="utf-8" ?>
<svg baseProfile="full" height="300mm" version="1.1" viewBox="0,0,200,300" width="200mm" xmlns="http://www.w3.org/2000/svg" xmlns:ev="http://www.w3.org/2001/xml-events" xmlns:xlink="http://www.w3.org/1999/xlink"><defs /><rect fill="#222222" height="300" width="200" x="0" y="0" /><text fill="#FFFFFF" style="font-size:12px; font-family:Arial; font-weight:bold;" x="10" y="20">Over 5km Runs</text><text fill="#FFFFFF" style="font-size:4px; font-family:Arial" x="10" y="280">ATHLETE</text><text fill="#FFFFFF" style="font-size:9px; font-family:Arial" x="10" y="290">Gusty</text><text fill="#FFFFFF" style="font-size:4px; font-family:Arial" x="120" y="280">STATISTICS</text><text fill="#FFFFFF" style="font-size:3px; font-family:Arial" x="120" y="285">Number: 2</text><text fill="#FFFFFF" style="font-size:3px; font-family:Arial" x="120" y="290">Weekly: 1.0</text><text fill="#FFFFFF" style="font-size:3px; font-family:Arial" x="141" y="285">Total: 12.5 km</text><text fill="#FFFFFF" style="font-size:3px; font-family:Arial" x="141" y="290">Avg: 6.3 km</text><text fill="#FFFFFF" style="font-size:3px; font-family:Arial" x="167" y="285">Min: 5.3 km</text><text fill="#FFFFFF" style="font-size:3px; font-family:Arial" x="167" y="290">Max: 7.2 km</text><polyline fill="none" points="89.68577204318717,125.07877417944837 89.90522370208055,127.32368365948787 89.61262148991227,128.6064868668327 89.61262148991227,129.4082380552427 89.90522370208055,131.25226340600057 89.90522370208055,133.25663502089446 89.90522370208055,133.73768362455303 89.53947093710303,134.05838256812422 89.39316983148456,134.9403041449841 89.17371817305684,135.10065344104078 89.10056761978194,135.10065344104078 89.24686872586608,134.77995482389815 89.4663203842938,133.17646023165435 89.17371817305684,129.72893835476134 89.24686872586608,127.32368365948787 88.88111596135423,124.83824787189951 88.73481485527009,122.83385977748549 88.44221264403313,121.23034647689201 88.295911537949,119.78718235896667 87.78385766828433,117.70260837546084 87.63755656220019,116.2594392853207 87.27180379768834,114.575739442138 86.61344882193953,112.65150765981525 85.95509384619072,110.16603625501739 85.58934108167887,107.8409123813617 85.36988942278549,107.03914430405712 85.36988942278549,106.15719869395252 85.22358831716701,105.43560626584804 84.85783555265516,101.26639561215416 84.19948057644069,99.26196136971703 83.98002891801298,98.29983153927606 84.56523334095255,96.61610216047848 84.85783555265516,95.25308111112099 85.07728721108288,90.5225822146167 85.29673886997625,89.88115695252782 85.36988942278549,88.27759203896858 86.46714771585539,81.54259197233478 86.54029826913029,80.58044548844919 86.68659937474877,80.09937190735945 86.61344882193953,79.29758210334694 87.05235213879496,78.09489621955436 87.9301587739028,76.49131284310715 88.73481485527009,74.08593306835974 90.1978259133175,70.71839188801823 90.92933144234121,68.79407766804798 91.00248199515045,68.3129985476262 91.73398752370849,67.43101957335602 92.09974028822035,66.46885982545791 92.61179415835068,65.58687926217681 93.27014913409948,64.30399708607001 94.44055798090994,63.101293585670646 95.02576240384951,61.89858867228031 95.39151516836137,60.69588234566618 96.26932180253789,59.01209111424396 97.43973064934835,57.488658565678634 98.53698894241825,55.64450034161564 101.46301105758175,52.196717357612215 102.34081769222394,50.753455915953964 104.97423759661615,47.866926927352324 106.58354975981638,46.3434777900693 108.48546413471922,44.98038979782723 109.8021740866825,43.85784538241569 110.38737851008773,43.53711818042211 111.77723901486024,42.414572181820404 112.28929288499057,42.33439027774148 113.38655117806047,41.211842960095964 113.31340062525123,40.81093290558783 111.85038956766948,39.127108960878104 110.5336796157062,37.04237071517855 109.58272242825478,36.08018240024103 109.29012021701783,36.0 108.92436745204031,36.24054718238767 105.85204423079267,38.80638027639361 104.31588262040168,39.768566028331406 102.85287156235427,41.131660961778834 99.63424723548815,43.77766359143425 97.95178451901302,45.78220648365095 97.14712843764573,46.90474878868554 96.12302069691941,47.9471083979588 95.39151516836137,49.149829705187585 93.34329968737438,51.475086891208775 90.49042812502012,55.72468120296253 89.17371817305684,58.13010412553558 88.07645987998694,59.653535719553474 87.9301587739028,60.294979922648054 88.07645987998694,60.37516041996423 88.14961043233052,60.13461890962208 86.90605103317648,61.89858867228031 86.24769605742767,63.7427356284461 85.51619052886963,65.50669917307096 85.07728721108288,66.14813970855903 85.00413665827364,66.46885982545791 83.17537283618003,70.87875124288257 82.0049639903009,74.08593306835974 80.7614045906812,77.93453799496638 80.68825403787196,78.57597074250225 80.90770569676533,78.89668696571607 81.05400680238381,78.57597074250225 80.61510348506272,79.37776111182757 80.17620016774163,80.66062439669622 79.37154408590868,85.79206145898206 78.78633966296911,88.83884004462743 78.34743634564802,95.33325887017418 78.34743634564802,97.81876628519967 78.71318911015987,98.38000905991066 78.85949021624401,98.38000905991066 78.85949021624401,98.13947647972964 78.71318911015987,98.46018657385139 78.64003855688497,99.34213881473988 78.85949021624401,99.90338075422915 79.07894187467173,100.06373553775484 80.61510348506272,99.90338075422915 83.90687836520374,100.06373553775484 84.56523334095255,100.30426766560413 85.15043776389211,100.38444502901984 85.15043776389211,100.14391291991342 85.58934108167887,100.22409029607661 86.39399716304615,100.06373553775484 87.05235213879496,100.22409029607661 90.12467536050826,100.14391291991342 94.44055798090994,99.82320335315308 95.8304184852168,100.06373553775484 97.65918230777606,100.06373553775484 97.80548341339454,99.90338075422915 98.61013949522749,99.82320335315308 99.48794612986967,100.30426766560413 103.07232322124764,100.06373553775484 105.99834533687681,100.14391291991342 107.38820584164932,99.82320335315308 109.29012021701783,99.66284853214165 110.09477629838511,99.66284853214165 112.28929288499057,100.14391291991342 116.2394227408804,99.90338075422915 117.92188545688987,100.06373553775484 120.33585370285437,99.90338075422915 120.62845591409132,100.06373553775484 120.92105812579393,100.62497708166484 120.92105812579393,101.26639561215416 120.70160646690056,103.19064879306825 120.7747570197098,105.83649101102492 120.70160646690056,105.99684486497426 120.70160646690056,108.08144268218894 120.7747570197098,108.56250311416807 120.62845591409132,108.88320994318929 120.7747570197098,114.01450554584153 120.62845591409132,114.81626816070639 120.8479075729847,115.37750161747681 120.99420867860317,117.54225635476178 121.28681089030579,119.3061272011837 121.21366033703089,121.06999500870006 121.5062625487335,125.07877417944837 121.5062625487335,127.40385890711332 121.65256365435198,129.3280629645451 121.06735923141241,133.73768362455303 121.14050978422165,136.22309781005606 120.92105812579393,136.8644940399099 121.06735923141241,138.7886803188012 120.99420867860317,139.43007494159974 121.35996144311503,140.31199189194012 121.14050978422165,141.59477882750798 120.99420867860317,141.8353011989384 120.4090042556636,142.23617169255158 119.7506492799148,142.15599760646 118.72654153872281,142.47669391334057 117.99503601016477,142.47669391334057 117.77558435127139,142.55686797440285 116.67832605820149,142.39651984616648 115.5079172118567,142.79739011992933 114.33750836597756,142.8775641558459 114.04490615427494,142.79739011992933 112.8013467551209,143.11808622610988 110.82628182740882,143.11808622610988 109.14381911046803,143.3586082396796 108.41231358190998,143.2784342415398 106.14464644249529,143.5991301970207 104.90108704380691,143.5991301970207 101.60931216366589,144.0 100.51205387059599,143.83965209766757 99.12219336535782,143.9198260520352 97.95178451901302,143.75947813712992 96.70822512032464,143.83965209766757 93.34329968737438,143.679304170073 91.51453586528078,143.9198260520352 91.00248199515045,143.75947813712992 90.6367292306386,143.5991301970207 90.56357867782936,143.4387822317076 90.92933144234121,141.67495295754634 90.70987978344783,139.43007494159974 90.78303033625707,137.0248430345091 90.49042812502012,135.02047879609745 90.6367292306386,128.84701228904305 90.12467536050826,124.43737056705868 89.90522370208055,124.11666861001868" stroke="#4dd2ff" stroke-linecap="round" stroke-linejoin="round" stroke-width="0.5"><title>2024-03-24 5.3km</title><desc>11024861483</desc></polyline><polyline fill="none" points="122.44794749468565,231.60007984563708 137.7782531119883,231.60007984563708 153.1085587181151,217.2000933624804 136.68323127925396,168.00003755278885 107.11764189228415,165.60003079194576 78.64707432687283,194.40008712094277 51.27152859419584,231.60007984563708 58.936681397259235,249.60004393570125 96.16742359474301,255.60002727154642 145.4434059150517,205.20009430404752 148.72847139835358,176.40005825273693 132.30314396321774,162.00001994799823 109.30768554657698,163.20002365857363 77.55205249413848,194.40008712094277 49.08148493245244,223.20008937455714 62.221746888011694,254.40003079082817 88.50227078795433,258.00001994892955 107.11764189228415,248.40004698652774 147.63344956934452,202.8000933667645 150.9185150563717,180.00006571784616 116.97283835336566,160.8000161461532 81.93213981762528,190.80008303932846 46.89144127815962,230.40008148737252 57.84165956825018,253.20003421790898 74.26698700711131,259.2000161483884 100.54751091450453,255.60002727154642 144.34838408604264,205.20009430404752 150.9185150563717,188.40007984638214 147.63344956934452,172.80004994384944 129.01807847246528,162.00001994799823 99.45248908177018,169.2000407911837 55.65161591023207,212.4000948658213 47.986463103443384,226.8000858547166 56.74663774296641,249.60004393570125 86.31222713366151,260.40001225005835 116.97283835336566,237.60007022228092 152.01353688910604,187.2000781102106 148.72847139835358,170.40004393830895 134.49318762123585,160.8000161461532 101.64253274351358,168.00003755278885 47.986463103443384,232.8000781070441 57.84165956825018,250.80004078894854 79.74209615588188,261.6000082595274 111.49772920459509,243.60005825199187 152.01353688910604,192.00008449330926 149.82349323108792,172.80004994384944 121.35292566940188,159.60001225303859 106.02262005954981,164.40002727229148 83.02716163918376,189.60008148942143 50.17650676518679,228.00008449237794 57.84165956825018,249.60004393570125 76.45703067258,260.40001225005835 141.06331859901547,210.00009505357593 149.82349323108792,194.40008712094277 146.53842774406075,169.2000407911837 126.82803481817245,159.60001225303859 97.26244542747736,172.80004994384944 55.65161591023207,216.0000938801095 50.17650676518679,231.60007984563708 54.55659407749772,248.40004698652774 75.36200883984566,260.40001225005835 96.16742359474301,259.2000161483884 129.01807847246528,222.00009035971016 147.63344956934452,201.60009275376797 146.53842774406075,174.00005280785263 124.63799115642905,159.60001225303859 93.97737993299961,175.20005557872355 50.17650676518679,225.6000871201977 51.27152859419584,243.60005825199187 69.88689969480038,258.00001994892955 98.35746724903584,258.00001994892955 146.53842774406075,205.20009430404752 153.1085587181151,188.40007984638214 138.87327493727207,160.8000161461532 116.97283835336566,157.20000417903066 88.50227078795433,177.60006083454937 54.55659407749772,214.80009430460632 50.17650676518679,241.2000633208081 62.221746888011694,256.80002365633845 86.31222713366151,261.6000082595274 131.20812213420868,222.00009035971016 150.9185150563717,187.2000781102106 142.15834042057395,165.60003079194576 134.49318762123585,159.60001225303859 106.02262005954981,164.40002727229148 73.17196517810225,201.60009275376797 53.461572252213955,219.60009205061942 50.17650676518679,237.60007022228092 58.936681397259235,253.20003421790898 77.55205249413848,261.6000082595274 98.35746724903584,256.80002365633845 147.63344956934452,200.40009205043316 147.63344956934452,169.2000407911837 134.49318762123585,158.40000826399773 106.02262005954981,165.60003079194576 74.26698700711131,198.00009035971016 51.27152859419584,229.2000830359757 57.84165956825018,254.40003079082817 83.02716163918376,261.6000082595274 97.26244542747736,255.60002727154642 142.15834042057395,207.6000948678702 152.01353688910604,184.8000743528828 129.01807847246528,159.60001225303859 102.73755456879735,166.80003422033042 51.27152859419584,225.6000871201977 54.55659407749772,248.40004698652774 63.31676871329546,256.80002365633845 86.31222713366151,261.6000082595274 143.2533622533083,207.6000948678702 153.1085587181151,184.8000743528828 147.63344956934452,165.60003079194576 137.7782531119883,159.60001225303859 106.02262005954981,164.40002727229148 52.36655041947961,219.60009205061942 50.17650676518679,243.60005825199187 57.84165956825018,256.80002365633845 81.93213981762528,262.80000417586416 101.64253274351358,254.40003079082817 150.9185150563717,183.60007233545184 141.06331859901547,163.20002365857363 125.7330129891634,158.40000826399773 93.97737993299961,170.40004393830895 55.65161591023207,213.60009463131428 47.986463103443384,235.20007435418665 55.65161591023207,252.00003755185753 74.26698700711131,262.80000417586416 97.26244542747736,258.00001994892955 147.63344956934452,199.2000912539661 148.72847139835358,177.60006083454937 141.06331859901547,163.20002365857363 122.44794749468565,159.60001225303859 77.55205249413848,196.8000893741846 51.27152859419584,219.60009205061942 47.986463103443384,241.2000633208081 57.84165956825018,255.60002727154642 80.83711798489094,264.0 97.26244542747736,258.00001994892955 143.2533622533083,206.400094631128 150.9185150563717,190.80008303932846 144.34838408604264,166.80003422033042 135.5882094539702,159.60001225303859 111.49772920459509,159.60001225303859 97.26244542747736,169.2000407911837 60.03170322999358,211.2000950081274 50.17650676518679,237.60007022228092 57.84165956825018,253.20003421790898 76.45703067258,261.6000082595274 93.97737993299961,259.2000161483884 114.78279469162226,237.60007022228092 148.72847139835358,192.00008449330926 145.4434059150517,172.80004994384944 121.35292566940188,159.60001225303859 95.07240176573396,174.00005280785263 58.936681397259235,212.4000948658213 49.08148493245244,231.60007984563708 55.65161591023207,253.20003421790898 79.74209615588188,262.80000417586416 93.97737993299961,259.2000161483884 148.72847139835358,196.8000893741846 145.4434059150517,169.2000407911837 130.11310030147433,158.40000826399773 102.73755456879735,165.60003079194576 77.55205249413848,196.8000893741846 50.17650676518679,226.8000858547166 50.17650676518679,242.40006083250046 58.936681397259235,255.60002727154642 84.1221834719181,261.6000082595274 145.4434059150517,200.40009205043316 149.82349323108792,181.20006801746786 141.06331859901547,163.20002365857363 123.54296932742,157.20000417903066 98.35746724903584,169.2000407911837 56.74663774296641,213.60009463131428 50.17650676518679,229.2000830359757 58.936681397259235,254.40003079082817 80.83711798489094,260.40001225005835 97.26244542747736,255.60002727154642 149.82349323108792,193.20008585322648 147.63344956934452,170.40004393830895 122.44794749468565,158.40000826399773 98.35746724903584,165.60003079194576 57.84165956825018,212.4000948658213 47.986463103443384,235.20007435418665 51.27152859419584,248.40004698652774 65.50681237503886,259.2000161483884 89.59729262068868,261.6000082595274 127.92305664345622,222.00009035971016 148.72847139835358,198.00009035971016 148.72847139835358,172.80004994384944 136.68323127925396,159.60001225303859 113.68777286633849,158.40000826399773 79.74209615588188,192.00008449330926 49.08148493245244,223.20008937455714 49.08148493245244,247.20004994422197 56.74663774296641,259.2000161483884 85.21720530092716,264.0 119.16288201138377,231.60007984563708 147.63344956934452,199.2000912539661 141.06331859901547,166.80003422033042 120.25790383666754,158.40000826399773 99.45248908177018,170.40004393830895 55.65161591023207,216.0000938801095 47.986463103443384,231.60007984563708 55.65161591023207,254.40003079082817 79.74209615588188,264.0 101.64253274351358,254.40003079082817 148.72847139835358,199.2000912539661 141.06331859901547,163.20002365857363 123.54296932742,158.40000826399773 99.45248908177018,169.2000407911837 57.84165956825018,211.2000950081274 47.986463103443384,238.80006801802665 58.936681397259235,255.60002727154642 74.26698700711131,261.6000082595274 99.45248908177018,255.60002727154642 142.15834042057395,211.2000950081274 149.82349323108792,186.00007627811283 146.53842774406075,168.00003755278885 132.30314396321774,157.20000417903066 114.78279469162226,158.40000826399773 74.26698700711131,199.2000912539661 46.89144127815962,234.00007627625018 54.55659407749772,252.00003755185753 76.45703067258,262.80000417586416 102.73755456879735,254.40003079082817 147.63344956934452,200.40009205043316 146.53842774406075,172.80004994384944 134.49318762123585,160.8000161461532 113.68777286633849,159.60001225303859 80.83711798489094,193.20008585322648 51.27152859419584,223.20008937455714 50.17650676518679,238.80006801802665 58.936681397259235,253.20003421790898 80.83711798489094,262.80000417586416 110.40270737558603,243.60005825199187 144.34838408604264,206.400094631128" stroke="#4dd2ff" stroke-linecap="round" stroke-linejoin="round" stroke-width="0.5"><title>2023-12-16 7.2km</title><desc>10388229093</desc></polyline></svg>