<?xml version="1.0" encoding="utf-8" ?>
<svg baseProfile="full" height="200mm" version="1.1" viewBox="0,0,200,200" width="200mm" xmlns="http://www.w3.org/2000/svg" xmlns:ev="http://www.w3.org/2001/xml-events" xmlns:xlink="http://www.w3.org/1999/xlink"><defs /><rect fill="#1a1a1a" height="200" width="200" x="0" y="0" /><text alignment-baseline="middle" fill="#e1ed5e" style="dominant-baseline: central; font-size:9.0px; font-family:Arial;" text-anchor="middle" x="100.0" y="100.0">2024</text><line stroke="#e1ed5e" stroke-width="0.3" x1="100.0" x2="100.0" y1="15.0" y2="10.0" /><path d="M 100.0 14.0 a86.0,86.0 0 0,1 42.35913384403234,11.155469271406648" fill="none" id="id13" stroke="none" /><text fill="#e1ed5e" style="font-size:6.75px; font-family:Arial;" text-anchor="middle"><textPath startOffset="22.145653131862478" xlink:href="#id13">January</textPath></text><path d="M 106.72888874123014 80.10723608172694 l 15.469222810651914 -45.73200853893245 a69.27746326569556,69.27746326569556 0 0,0 1.1232655413967911,0.3907300636600418 l -16.251994124093724 45.459720042703815" fill="#30ff2f" stroke="none" /><path d="M 107.06938296918511 80.22567764915836 l 15.99028170833991 -44.72766383710686 a68.50003180459258,68.50003180459258 0 0,0 1.1038644702243627,0.40535432358248896 l -16.755735330218396 44.44657866451565" fill="#3dff2e" stroke="none" /><line stroke="#e1ed5e" stroke-width="0.3" x1="143.13028292997686" x2="145.6673583964461" y1="26.7553504044142" y2="22.446841604673864" /><path d="M 143.63769802327073 25.89364864446614 a86.0,86.0 0 0,1 29.32050498858742,28.57503671076993" fill="none" id="id14" stroke="none" /><text fill="#e1ed5e" style="font-size:6.75px; font-family:Arial;" text-anchor="middle"><textPath startOffset="20.669276256404974" xlink:href="#id14">February</textPath></text><path d="M 111.27062007382361 82.28071324371311 l 24.601756156854712 -38.67804692166024 a66.83925958908466,66.83925958908466 0 0,0 0.9628493502381765,0.6241073160085586 l -25.262091139349895 38.25002576394779" fill="#58ff2a" stroke="none" /><path d="M 115.41159269507618 85.73525988315684 l 22.84198946757027 -21.14220444008093 a52.12473761211119,52.12473761211119 0 0,0 0.6021705327481923,0.6618909002412279 l -23.20155770116034 20.74697596428203" fill="#ff8d0d" stroke="none" /><path d="M 116.7966241395341 87.39550010848427 l 19.928925070877256 -14.955036905461467 a45.91616309395077,45.91616309395077 0 0,0 0.4676845025836069,0.6345038491640879 l -20.182711593044687 14.610726747028504" fill="#ff0000" stroke="none" /><line stroke="#e1ed5e" stroke-width="0.3" x1="172.87174338648825" x2="177.1583165268699" y1="56.24261187166439" y2="53.66864786411523" /><path d="M 173.72905801456457 55.72781907015455 a86.0,86.0 0 0,1 12.242430191666344,42.057860355516425" fill="none" id="id15" stroke="none" /><text fill="#e1ed5e" style="font-size:6.75px; font-family:Arial;" text-anchor="middle"><textPath startOffset="22.145653131862474" xlink:href="#id15">March</textPath></text><path d="M 118.36410011445183 89.81374322990088 l 43.64200098532459 -24.207482273939064 a70.90617645187965,70.90617645187965 0 0,0 0.5812775246279172,1.069485174663323 l -44.05112385956785 23.454742265801137" fill="#33ff4e" stroke="none" /><path d="M 120.16314734710363 94.1308016681162 l 47.72722348637386 -13.89269917287536 a70.70809744927166,70.70809744927166 0 0,0 0.32923544719653247,1.1683404538471827 l -47.95867742564497 13.071350795125165" fill="#32ff4a" stroke="none" /><path d="M 120.7213421655516 96.59031103205396 l 48.126040704508114 -7.91912168382049 a69.773233254882,69.773233254882 0 0,0 0.1843292795080775,1.1835262033449114 l -48.254891476154455 7.091807298544136" fill="#30ff38" stroke="none" /><path d="M 120.77682067341334 96.94652285012252 l 29.89111745577932 -4.39296490883807 a51.212200241714896,51.212200241714896 0 0,0 0.1203620429143381,0.8708797842435614 l -29.962124015248868 3.8791968163944226" fill="#ff790b" stroke="none" /><path d="M 120.98066250479742 99.09900007780936 l 48.3073619950164 -2.0745259778518705 a69.35188601234017,69.35188601234017 0 0,0 0.04086910936960093,1.1898595271861618 l -48.33585579138285 1.2449601861015887" fill="#2fff30" stroke="none" /><path d="M 120.99303781780057 99.45929381324524 l 49.59604469089299 -1.2774181819551966 a70.61249284396668,70.61249284396668 0 0,0 0.020809059140647304,1.2120233722247629 l -49.61066518163231 0.42584789376136734" fill="#32ff48" stroke="none" /><line stroke="#e1ed5e" stroke-width="0.3" x1="184.99686870605535" x2="189.99668451229388" y1="99.2704041080226" y2="99.22748670261217" /><path d="M 185.99683186730306 99.26182062694052 a86.0,86.0 0 0,1 -10.086455211305974,41.156179273409016" fill="none" id="id16" stroke="none" /><text fill="#e1ed5e" style="font-size:6.75px; font-family:Arial;" text-anchor="middle"><textPath startOffset="21.40746469413373" xlink:href="#id16">April</textPath></text><path d="M 120.93736805541906 101.62068470465957 l 48.73906955083617 3.7727122306537755 a69.88486737484894,69.88486737484894 0 0,0 -0.10285181327644885,1.1952939746661588 l -48.667124114861984 -4.608827252695592" fill="#30ff3a" stroke="none" /><path d="M 120.9064616781168 101.97986365728391 l 42.22118515479488 3.9983901313597694 a63.41008841676738,63.41008841676738 0 0,0 -0.111926679530266,1.082789092756774 l -42.14632608278295 -4.722583746399475" fill="#92ff23" stroke="none" /><path d="M 120.51834098615036 104.47187691870673 l 61.555022958451104 13.415630756120176 a84.0,84.0 0 0,0 -0.3191565537693437,1.4062626642439322 l -61.315655543124095 -14.470327754303124" fill="#4dd2ff" stroke="none" /><line stroke="#e1ed5e" stroke-width="0.3" x1="174.33088141563837" x2="178.70328620479359" y1="141.23008692659167" y2="143.65538615756765" /><path d="M 175.20536237346943 141.71514677278685 a86.0,86.0 0 0,1 -30.301960400862466,31.631185727798858" fill="none" id="id17" stroke="none" /><text fill="#e1ed5e" style="font-size:6.75px; font-family:Arial;" text-anchor="middle"><textPath startOffset="22.145653131862474" xlink:href="#id17">May</textPath></text><line stroke="#e1ed5e" stroke-width="0.3" x1="143.1302829299769" x2="145.66735839644613" y1="173.24464959558577" y2="177.55315839532614" /><path d="M 143.63769802327073 174.10635135553383 a86.0,86.0 0 0,1 -40.68552437913181,11.842963189579606" fill="none" id="id18" stroke="none" /><text fill="#e1ed5e" style="font-size:6.75px; font-family:Arial;" text-anchor="middle"><textPath startOffset="21.407464694133747" xlink:href="#id18">June</textPath></text><line stroke="#e1ed5e" stroke-width="0.3" x1="101.45913802915013" x2="101.54496967792366" y1="184.9874750549273" y2="189.98673829345242" /><path d="M 101.47630435890484 185.9873277026323 a86.0,86.0 0 0,1 -42.54439059252881,-10.42667462771756" fill="none" id="id19" stroke="none" /><text fill="#e1ed5e" style="font-size:6.75px; font-family:Arial;" text-anchor="middle"><textPath startOffset="22.145653131862474" xlink:href="#id19">July</textPath></text><line stroke="#e1ed5e" stroke-width="0.3" x1="58.13341422392154" x2="55.67067388415222" y1="173.97424548756322" y2="178.32567169271397" /><path d="M 57.64086615596768 174.84453072859336 a86.0,86.0 0 0,1 -31.369924170532247,-30.572349798747897" fill="none" id="id20" stroke="none" /><text fill="#e1ed5e" style="font-size:6.75px; font-family:Arial;" text-anchor="middle"><textPath startOffset="22.145653131862474" xlink:href="#id20">August</textPath></text><line stroke="#e1ed5e" stroke-width="0.3" x1="26.387840678322732" x2="22.057713659400548" y1="142.50000000000003" y2="145.00000000000006" /><path d="M 25.521815274538298 143.00000000000003 a86.0,86.0 0 0,1 -11.493303480769221,-40.785679425670985" fill="none" id="id21" stroke="none" /><text fill="#e1ed5e" style="font-size:6.75px; font-family:Arial;" text-anchor="middle"><textPath startOffset="21.40746469413373" xlink:href="#id21">September</textPath></text><line stroke="#e1ed5e" stroke-width="0.3" x1="15.003131293944662" x2="10.003315487706104" y1="100.72959589197737" y2="100.7725132973878" /><path d="M 14.003168132696942 100.73817937305945 a86.0,86.0 0 0,1 10.791469493833604,-42.45332614584628" fill="none" id="id22" stroke="none" /><text fill="#e1ed5e" style="font-size:6.75px; font-family:Arial;" text-anchor="middle"><textPath startOffset="22.145653131862435" xlink:href="#id22">October</textPath></text><line stroke="#e1ed5e" stroke-width="0.3" x1="26.387840678322718" x2="22.05771365940052" y1="57.49999999999999" y2="54.99999999999999" /><path d="M 25.521815274538284 56.99999999999999 a86.0,86.0 0 0,1 29.574782752854787,-30.34633250058573" fill="none" id="id23" stroke="none" /><text fill="#e1ed5e" style="font-size:6.75px; font-family:Arial;" text-anchor="middle"><textPath startOffset="21.40746469413373" xlink:href="#id23">November</textPath></text><line stroke="#e1ed5e" stroke-width="0.3" x1="56.869717070023135" x2="54.33264160355391" y1="26.7553504044142" y2="22.446841604673864" /><path d="M 56.362301976729285 25.89364864446614 a86.0,86.0 0 0,1 42.16139366436587,-11.88097634709845" fill="none" id="id24" stroke="none" /><text fill="#e1ed5e" style="font-size:6.75px; font-family:Arial;" text-anchor="middle"><textPath startOffset="22.145653131862474" xlink:href="#id24">December</textPath></text></svg>