<?xml version="1.0" encoding="utf-8" ?>
<svg baseProfile="full" height="200mm" version="1.1" viewBox="0,0,200,200" width="200mm" xmlns="http://www.w3.org/2000/svg" xmlns:ev="http://www.w3.org/2001/xml-events" xmlns:xlink="http://www.w3.org/1999/xlink"><defs /><rect fill="#1a1a1a" height="200" width="200" x="0" y="0" /><text alignment-baseline="middle" fill="#e1ed5e" style="dominant-baseline: central; font-size:9.0px; font-family:Arial;" text-anchor="middle" x="100.0" y="100.0">2024</text><line stroke="#e1ed5e" stroke-width="0.3" x1="100.0" x2="100.0" y1="15.0" y2="10.0" /><path d="M 100.0 14.0 a86.0,86.0 0 0,1 42.35913384403234,11.155469271406648" fill="none" id="id13" stroke="none" /><text fill="#e1ed5e" style="font-size:6.75px; font-family:Arial;" text-anchor="middle"><textPath startOffset="22.145653131862478" xlink:href="#id13">January</textPath></text><path d="M 106.72888874123014 80.10723608172694 l 19.527864211572258 -57.73066066743791 a81.94396329222828,81.94396329222828 0 0,0 1.3286403103218394,0.4621700692320668 l -20.516010293939114 57.386932165637255" fill="#48f8ff" stroke="none" /><path d="M 107.06938296918511 80.22567764915836 l 20.18563270613917 -56.46280725302092 a80.96255807284199,80.96255807284199 0 0,0 1.3046956172229836,0.4791023025616249 l -21.15191747501628 56.10797410145057" fill="#46fff4" stroke="none" /><line stroke="#e1ed5e" stroke-width="0.3" x1="143.13028292997686" x2="145.6673583964461" y1="26.7553504044142" y2="22.446841604673864" /><path d="M 143.63769802327073 25.89364864446614 a86.0,86.0 0 0,1 29.32050498858742,28.57503671076993" fill="none" id="id14" stroke="none" /><text fill="#e1ed5e" style="font-size:6.75px; font-family:Arial;" text-anchor="middle"><textPath startOffset="20.669276256404974" xlink:href="#id14">February</textPath></text><path d="M 111.27062007382361 82.28071324371311 l 31.056489358111737 -48.82595961672435 a78.86605104674506,78.86605104674506 0 0,0 1.1361006461329841,0.7364067128447987 l -31.890075636501727 48.285639062175655" fill="#40ffca" stroke="none" /><path d="M 115.41159269507618 85.73525988315684 l 28.835014797105885 -26.689259214425995 a60.29089761973043,60.29089761973043 0 0,0 0.6965100181358845,0.765586520527691 l -29.288922516083645 26.190335118340634" fill="#ffd213" stroke="none" /><path d="M 116.7966241395341 87.39550010848427 l 25.157653195008077 -18.87877196828584 a52.453386865500434,52.453386865500434 0 0,0 0.5342701674532773,0.7248400917070041 l -25.47802538204518 18.44412556730996" fill="#ff0000" stroke="none" /><line stroke="#e1ed5e" stroke-width="0.3" x1="172.87174338648825" x2="177.1583165268699" y1="56.24261187166439" y2="53.66864786411523" /><path d="M 173.72905801456457 55.72781907015455 a86.0,86.0 0 0,1 12.242430191666344,42.057860355516425" fill="none" id="id15" stroke="none" /><text fill="#e1ed5e" style="font-size:6.75px; font-family:Arial;" text-anchor="middle"><textPath startOffset="22.145653131862474" xlink:href="#id15">March</textPath></text><path d="M 118.36410011445183 89.81374322990088 l 55.092300343355504 -30.558770310297362 a84.0,84.0 0 0,0 0.6886186015386349,1.2669806661015868 l -55.60876429450948 29.60853481072117" fill="#4dd2ff" stroke="none" /><path d="M 120.16314734710363 94.1308016681162 l 60.249357763177336 -17.537709961312476 a83.74995124749067,83.74995124749067 0 0,0 0.38996173912666077,1.3838366407803915 l -60.54153799437858 16.50086539662907" fill="#4cd6ff" stroke="none" /><path d="M 120.7213421655516 96.59031103205396 l 60.75281217561233 -9.996852124340618 a82.56980785775738,82.56980785775738 0 0,0 0.21813570163707263,1.400587684503968 l -60.915469369387665 8.952476257905209" fill="#4aecff" stroke="none" /><path d="M 120.77682067341334 96.94652285012252 l 37.733614025307105 -5.545541833357076 a59.13893891597361,59.13893891597361 0 0,0 0.1389919486004587,1.0056765013111966 l -37.823250490462776 4.896977023845794" fill="#ffb510" stroke="none" /><path d="M 120.98066250479742 99.09900007780936 l 60.98170651523454 -2.618816865898077 a82.03791224548323,82.03791224548323 0 0,0 0.048344992483950494,1.4075117071564798 l -61.01767619471534 1.571598894177477" fill="#48f6ff" stroke="none" /><path d="M 120.99303781780057 99.45929381324524 l 62.60849934153944 -1.6125728554014744 a83.62926297677087,83.62926297677087 0 0,0 0.024645019727852057,1.43544884548624 l -62.626955792865964 0.5375770939461679" fill="#4cd9ff" stroke="none" /><line stroke="#e1ed5e" stroke-width="0.3" x1="184.99686870605535" x2="189.99668451229388" y1="99.2704041080226" y2="99.22748670261217" /><path d="M 185.99683186730306 99.26182062694052 a86.0,86.0 0 0,1 -10.086455211305974,41.156179273409016" fill="none" id="id16" stroke="none" /><text fill="#e1ed5e" style="font-size:6.75px; font-family:Arial;" text-anchor="middle"><textPath startOffset="21.40746469413373" xlink:href="#id16">April</textPath></text><path d="M 120.93736805541906 101.62068470465957 l 61.52668066373236 4.762554205296886 a82.71073128763982,82.71073128763982 0 0,0 -0.12172805086293197,1.4146644683184724 l -61.43585899017168 -5.818039720991016" fill="#4ae9ff" stroke="none" /><line stroke="#e1ed5e" stroke-width="0.3" x1="174.33088141563837" x2="178.70328620479359" y1="141.23008692659167" y2="143.65538615756765" /><path d="M 175.20536237346943 141.71514677278685 a86.0,86.0 0 0,1 -30.301960400862466,31.631185727798858" fill="none" id="id17" stroke="none" /><text fill="#e1ed5e" style="font-size:6.75px; font-family:Arial;" text-anchor="middle"><textPath startOffset="22.145653131862474" xlink:href="#id17">May</textPath></text><line stroke="#e1ed5e" stroke-width="0.3" x1="143.1302829299769" x2="145.66735839644613" y1="173.24464959558577" y2="177.55315839532614" /><path d="M 143.63769802327073 174.10635135553383 a86.0,86.0 0 0,1 -40.68552437913181,11.842963189579606" fill="none" id="id18" stroke="none" /><text fill="#e1ed5e" style="font-size:6.75px; font-family:Arial;" text-anchor="middle"><textPath startOffset="21.407464694133747" xlink:href="#id18">June</textPath></text><line stroke="#e1ed5e" stroke-width="0.3" x1="101.45913802915013" x2="101.54496967792366" y1="184.9874750549273" y2="189.98673829345242" /><path d="M 101.47630435890484 185.9873277026323 a86.0,86.0 0 0,1 -42.54439059252881,-10.42667462771756" fill="none" id="id19" stroke="none" /><text fill="#e1ed5e" style="font-size:6.75px; font-family:Arial;" text-anchor="middle"><textPath startOffset="22.145653131862474" xlink:href="#id19">July</textPath></text><line stroke="#e1ed5e" stroke-width="0.3" x1="58.13341422392154" x2="55.67067388415222" y1="173.97424548756322" y2="178.32567169271397" /><path d="M 57.64086615596768 174.84453072859336 a86.0,86.0 0 0,1 -31.369924170532247,-30.572349798747897" fill="none" id="id20" stroke="none" /><text fill="#e1ed5e" style="font-size:6.75px; font-family:Arial;" text-anchor="middle"><textPath startOffset="22.145653131862474" xlink:href="#id20">August</textPath></text><line stroke="#e1ed5e" stroke-width="0.3" x1="26.387840678322732" x2="22.057713659400548" y1="142.50000000000003" y2="145.00000000000006" /><path d="M 25.521815274538298 143.00000000000003 a86.0,86.0 0 0,1 -11.493303480769221,-40.785679425670985" fill="none" id="id21" stroke="none" /><text fill="#e1ed5e" style="font-size:6.75px; font-family:Arial;" text-anchor="middle"><textPath startOffset="21.40746469413373" xlink:href="#id21">September</textPath></text><line stroke="#e1ed5e" stroke-width="0.3" x1="15.003131293944662" x2="10.003315487706104" y1="100.72959589197737" y2="100.7725132973878" /><path d="M 14.003168132696942 100.73817937305945 a86.0,86.0 0 0,1 10.791469493833604,-42.45332614584628" fill="none" id="id22" stroke="none" /><text fill="#e1ed5e" style="font-size:6.75px; font-family:Arial;" text-anchor="middle"><textPath startOffset="22.145653131862435" xlink:href="#id22">October</textPath></text><line stroke="#e1ed5e" stroke-width="0.3" x1="26.387840678322718" x2="22.05771365940052" y1="57.49999999999999" y2="54.99999999999999" /><path d="M 25.521815274538284 56.99999999999999 a86.0,86.0 0 0,1 29.574782752854787,-30.34633250058573" fill="none" id="id23" stroke="none" /><text fill="#e1ed5e" style="font-size:6.75px; font-family:Arial;" text-anchor="middle"><textPath startOffset="21.40746469413373" xlink:href="#id23">November</textPath></text><line stroke="#e1ed5e" stroke-width="0.3" x1="56.869717070023135" x2="54.33264160355391" y1="26.7553504044142" y2="22.446841604673864" /><path d="M 56.362301976729285 25.89364864446614 a86.0,86.0 0 0,1 42.16139366436587,-11.88097634709845" fill="none" id="id24" stroke="none" /><text fill="#e1ed5e" style="font-size:6.75px; font-family:Arial;" text-anchor="middle"><textPath startOffset="22.145653131862474" xlink:href="#id24">December</textPath></text></svg>