<?xml version="1.0" encoding="utf-8" ?>
<svg baseProfile="full" height="200mm" version="1.1" viewBox="0,0,200,200" width="200mm" xmlns="http://www.w3.org/2000/svg" xmlns:ev="http://www.w3.org/2001/xml-events" xmlns:xlink="http://www.w3.org/1999/xlink"><defs /><rect fill="#1a1a1a" height="200" width="200" x="0" y="0" /><text alignment-baseline="middle" fill="#e1ed5e" style="dominant-baseline: central; font-size:9.0px; font-family:Arial;" text-anchor="middle" x="100.0" y="100.0">2024</text><line stroke="#e1ed5e" stroke-width="0.3" x1="100.0" x2="100.0" y1="15.0" y2="10.0" /><path d="M 100.0 14.0 a86.0,86.0 0 0,1 42.35913384403234,11.155469271406648" fill="none" id="id13" stroke="none" /><text fill="#e1ed5e" style="font-size:6.75px; font-family:Arial;" text-anchor="middle"><textPath startOffset="22.145653131862478" xlink:href="#id13">January</textPath></text><path d="M 106.72888874123014 80.10723608172694 l 15.469222810651914 -45.73200853893245 a69.27746326569556,69.27746326569556 0 0,0 1.1232655413967911,0.3907300636600418 l -16.251994124093724 45.459720042703815" fill="red" stroke="none" /><path d="M 107.06938296918511 80.22567764915836 l 15.99028170833991 -44.72766383710686 a68.50003180459258,68.50003180459258 0 0,0 1.1038644702243627,0.40535432358248896 l -16.755735330218396 44.44657866451565" fill="red" stroke="none" /><line stroke="#e1ed5e" stroke-width="0.3" x1="143.13028292997686" x2="145.6673583964461" y1="26.7553504044142" y2="22.446841604673864" /><path d="M 143.63769802327073 25.89364864446614 a86.0,86.0 0 0,1 29.32050498858742,28.57503671076993" fill="none" id="id14" stroke="none" /><text fill="#e1ed5e" style="font-size:6.75px; font-family:Arial;" text-anchor="middle"><textPath startOffset="20.669276256404974" xlink:href="#id14">February</textPath></text><path d="M 111.27062007382361 82.28071324371311 l 24.601756156854712 -38.67804692166024 a66.83925958908466,66.83925958908466 0 0,0 0.9628493502381765,0.6241073160085586 l -25.262091139349895 38.25002576394779" fill="red" stroke="none" /><path d="M 115.41159269507618 85.73525988315684 l 22.84198946757027 -21.14220444008093 a52.12473761211119,52.12473761211119 0 0,0 0.6021705327481923,0.6618909002412279 l -23.20155770116034 20.74697596428203" fill="red" stroke="none" /><path d="M 116.7966241395341 87.39550010848427 l 19.928925070877256 -14.955036905461467 a45.91616309395077,45.91616309395077 0 0,0 0.4676845025836069,0.6345038491640879 l -20.182711593044687 14.610726747028504" fill="red" stroke="none" /><line stroke="#e1ed5e" stroke-width="0.3" x1="172.87174338648825" x2="177.1583165268699" y1="56.24261187166439" y2="53.66864786411523" /><path d="M 173.72905801456457 55.72781907015455 a86.0,86.0 0 0,1 12.242430191666344,42.057860355516425" fill="none" id="id15" stroke="none" /><text fill="#e1ed5e" style="font-size:6.75px; font-family:Arial;" text-anchor="middle"><textPath startOffset="22.145653131862474" xlink:href="#id15">March</textPath></text><path d="M 118.36410011445183 89.81374322990088 l 43.64200098532459 -24.207482273939064 a70.90617645187965,70.90617645187965 0 0,0 0.5812775246279172,1.069485174663323 l -44.05112385956785 23.454742265801137" fill="red" stroke="none" /><path d="M 120.16314734710363 94.1308016681162 l 47.72722348637386 -13.89269917287536 a70.70809744927166,70.70809744927166 0 0,0 0.32923544719653247,1.1683404538471827 l -47.95867742564497 13.071350795125165" fill="red" stroke="none" /><path d="M 120.7213421655516 96.59031103205396 l 48.126040704508114 -7.91912168382049 a69.773233254882,69.773233254882 0 0,0 0.1843292795080775,1.1835262033449114 l -48.254891476154455 7.091807298544136" fill="red" stroke="none" /><path d="M 120.77682067341334 96.94652285012252 l 29.89111745577932 -4.39296490883807 a51.212200241714896,51.212200241714896 0 0,0 0.1203620429143381,0.8708797842435614 l -29.962124015248868 3.8791968163944226" fill="red" stroke="none" /><path d="M 120.98066250479742 99.09900007780936 l 48.3073619950164 -2.0745259778518705 a69.35188601234017,69.35188601234017 0 0,0 0.04086910936960093,1.1898595271861618 l -48.33585579138285 1.2449601861015887" fill="red" stroke="none" /><path d="M 120.99303781780057 99.45929381324524 l 49.59604469089299 -1.2774181819551966 a70.61249284396668,70.61249284396668 0 0,0 0.020809059140647304,1.2120233722247629 l -49.61066518163231 0.42584789376136734" fill="red" stroke="none" /><line stroke="#e1ed5e" stroke-width="0.3" x1="184.99686870605535" x2="189.99668451229388" y1="99.2704041080226" y2="99.22748670261217" /><path d="M 185.99683186730306 99.26182062694052 a86.0,86.0 0 0,1 -10.086455211305974,41.156179273409016" fill="none" id="id16" stroke="none" /><text fill="#e1ed5e" style="font-size:6.75px; font-family:Arial;" text-anchor="middle"><textPath startOffset="21.40746469413373" xlink:href="#id16">April</textPath></text><path d="M 120.93736805541906 101.62068470465957 l 48.73906955083617 3.7727122306537755 a69.88486737484894,69.88486737484894 0 0,0 -0.10285181327644885,1.1952939746661588 l -48.667124114861984 -4.608827252695592" fill="red" stroke="none" /><path d="M 120.9064616781168 101.97986365728391 l 42.22118515479488 3.9983901313597694 a63.41008841676738,63.41008841676738 0 0,0 -0.111926679530266,1.082789092756774 l -42.14632608278295 -4.722583746399475" fill="red" stroke="none" /><path d="M 120.51834098615036 104.47187691870673 l 61.555022958451104 13.415630756120176 a84.0,84.0 0 0,0 -0.3191565537693437,1.4062626642439322 l -61.315655543124095 -14.470327754303124" fill="red" stroke="none" /><path d="M 119.83427380445688 106.89939002012753 l 49.810707372691056 17.326749682431736 a73.73824820304053,73.73824820304053 0 0,0 -0.42613625062754795,1.1919789353637902 l -49.50593095201957 -18.179263574176446" fill="red" stroke="none" /><path d="M 119.0197475246899 108.90220220490707 l 47.21917146290179 22.10095648037699 a73.13542395521912,73.13542395521912 0 0,0 -0.5419709021584586,1.1325107393526475 l -46.832821302783415 -22.908279721794738" fill="red" stroke="none" /><line stroke="#e1ed5e" stroke-width="0.3" x1="174.33088141563837" x2="178.70328620479359" y1="141.23008692659167" y2="143.65538615756765" /><path d="M 175.20536237346943 141.71514677278685 a86.0,86.0 0 0,1 -30.301960400862466,31.631185727798858" fill="none" id="id17" stroke="none" /><text fill="#e1ed5e" style="font-size:6.75px; font-family:Arial;" text-anchor="middle"><textPath startOffset="22.145653131862474" xlink:href="#id17">May</textPath></text><path d="M 117.81537515405839 111.11811171558189 l 44.14367208223291 27.548916231184435 a73.03466700591565,73.03466700591565 0 0,0 -0.6729007601732864,1.05791176083792 l -43.664253630433734 -28.302641666701028" fill="red" stroke="none" /><path d="M 117.62189284568427 111.42229804090321 l 27.682098194581688 17.943201604105706 a53.98874117422555,53.98874117422555 0 0,0 -0.510773497369187,0.7733761756357845 l -27.370000258291775 -18.41575765808055" fill="red" stroke="none" /><path d="M 114.39649973595853 115.28858382429668 l 40.288011955666754 42.784472558979836 a79.76763564658737,79.76763564658737 0 0,0 -1.004959124036274,0.9301751620394026 l -39.54762306031652 -43.46976546715162" fill="red" stroke="none" /><path d="M 112.7482090630111 116.68781488649013 l 19.779318944057007 25.891763422438565 a53.58227848101265,53.58227848101265 0 0,0 -0.7357280879690934,0.5521040732919981 l -19.33193786717715 -26.227486522994578" fill="red" stroke="none" /><line stroke="#e1ed5e" stroke-width="0.3" x1="143.1302829299769" x2="145.66735839644613" y1="173.24464959558577" y2="177.55315839532614" /><path d="M 143.63769802327073 174.10635135553383 a86.0,86.0 0 0,1 -40.68552437913181,11.842963189579606" fill="none" id="id18" stroke="none" /><text fill="#e1ed5e" style="font-size:6.75px; font-family:Arial;" text-anchor="middle"><textPath startOffset="21.407464694133747" xlink:href="#id18">June</textPath></text><path d="M 110.65571695917076 118.09573695890943 l 26.454591496497354 44.92567988717226 a73.13599643788564,73.13599643788564 0 0,0 -1.0873147123068074,0.6277614418441783 l -25.679484316330146 -45.373188226292605" fill="red" stroke="none" /><path d="M 108.4095320186766 119.2426549942271 l 20.971140083976668 47.986072539512705 a73.36842440048343,73.36842440048343 0 0,0 -1.1583998152957236,0.4944519984388551 l -20.144305193510515 -48.338999187610966" fill="red" stroke="none" /><path d="M 103.2317021107853 120.74984581791261 l 8.945906588152484 57.43913765631867 a79.13160740410913,79.13160740410913 0 0,0 -1.3440122720930818,0.19752352039321952 l -7.958569210451716 -57.584242250010774" fill="red" stroke="none" /><path d="M 100.72087961077811 120.9876233191556 l 1.8540245109718385 53.97790071875918 a75.00973220533044,75.00973220533044 0 0,0 -1.287262323900954,0.03315531122987152 l -0.9271488730001408 -54.0017737473391" fill="red" stroke="none" /><line stroke="#e1ed5e" stroke-width="0.3" x1="101.45913802915013" x2="101.54496967792366" y1="184.9874750549273" y2="189.98673829345242" /><path d="M 101.47630435890484 185.9873277026323 a86.0,86.0 0 0,1 -42.54439059252881,-10.42667462771756" fill="none" id="id19" stroke="none" /><text fill="#e1ed5e" style="font-size:6.75px; font-family:Arial;" text-anchor="middle"><textPath startOffset="22.145653131862474" xlink:href="#id19">July</textPath></text><path d="M 98.55909050195518 120.95050786540614 l -3.5513331615237353 51.63560475806254 a72.75758539533108,72.75758539533108 0 0,0 -1.245301526493831,-0.09639421398791347 l 4.437203682792802 -51.567032777079575" fill="red" stroke="none" /><path d="M 98.19965949673042 120.92268563240118 l -3.464404357541598 40.26163003316587 a61.41040646269321,61.41040646269321 0 0,0 -1.0495343662935368,-0.09939199568476495 l 4.15503828722015 -40.196226281975925" fill="red" stroke="none" /><path d="M 93.27111125876986 119.89276391827306 l -13.578540022683342 40.14254082861849 a63.37688442211055,63.37688442211055 0 0,0 -1.027593491976115,-0.3574503585654312 l 14.265639286704477 -39.90353203748447" fill="red" stroke="none" /><line stroke="#e1ed5e" stroke-width="0.3" x1="58.13341422392154" x2="55.67067388415222" y1="173.97424548756322" y2="178.32567169271397" /><path d="M 57.64086615596768 174.84453072859336 a86.0,86.0 0 0,1 -31.369924170532247,-30.572349798747897" fill="none" id="id20" stroke="none" /><text fill="#e1ed5e" style="font-size:6.75px; font-family:Arial;" text-anchor="middle"><textPath startOffset="22.145653131862474" xlink:href="#id20">August</textPath></text><path d="M 86.96720088162412 116.46651593811092 l -27.268722413181656 34.45313997017505 a64.93861713631449,64.93861713631449 0 0,0 -0.8681650826292803,-0.6993323363844757 l 27.856138266166198 -33.979959339997166" fill="red" stroke="none" /><line stroke="#e1ed5e" stroke-width="0.3" x1="26.387840678322732" x2="22.057713659400534" y1="142.50000000000003" y2="145.00000000000006" /><path d="M 25.521815274538284 143.00000000000003 a86.0,86.0 0 0,1 -11.493303480769212,-40.785679425670985" fill="none" id="id21" stroke="none" /><text fill="#e1ed5e" style="font-size:6.75px; font-family:Arial;" text-anchor="middle"><textPath startOffset="21.40746469413373" xlink:href="#id21">September</textPath></text><path d="M 79.407916724674 104.11899336999214 l -29.218913768136836 5.844601077033199 a50.79772279117104,50.79772279117104 0 0,0 -0.16369858309055835,-0.8565401591667812 l 29.314938643509553 -5.342158352833104" fill="red" stroke="none" /><line stroke="#e1ed5e" stroke-width="0.3" x1="15.003131293944662" x2="10.003315487706104" y1="100.72959589197737" y2="100.7725132973878" /><path d="M 14.003168132696942 100.73817937305945 a86.0,86.0 0 0,1 10.791469493833604,-42.45332614584628" fill="none" id="id22" stroke="none" /><text fill="#e1ed5e" style="font-size:6.75px; font-family:Arial;" text-anchor="middle"><textPath startOffset="22.145653131862435" xlink:href="#id22">October</textPath></text><path d="M 80.16572619554312 93.10060997987247 l -27.970603030647492 -9.729627679296938 a50.61452833789199,50.61452833789199 0 0,0 0.2925033596377423,-0.8181839557134091 l 27.799459500965806 10.208346591391269" fill="red" stroke="none" /><line stroke="#e1ed5e" stroke-width="0.3" x1="26.387840678322718" x2="22.05771365940052" y1="57.49999999999999" y2="54.99999999999999" /><path d="M 25.521815274538284 56.99999999999999 a86.0,86.0 0 0,1 29.574782752854787,-30.34633250058573" fill="none" id="id23" stroke="none" /><text fill="#e1ed5e" style="font-size:6.75px; font-family:Arial;" text-anchor="middle"><textPath startOffset="21.40746469413373" xlink:href="#id23">November</textPath></text><path d="M 81.99639281039701 89.18935116829357 l -20.889825242243912 -12.543739844536992 a45.36657973411361,45.36657973411361 0 0,0 0.40664017376422923,-0.6642161636484014 l 20.67141710402429 12.900493124309936" fill="red" stroke="none" /><path d="M 83.42222388311158 87.10902102172516 l -19.51470600298124 -15.174753421562237 a45.720374022008784,45.720374022008784 0 0,0 0.4871039272546117,-0.6154398996563389 l 19.251335645085064 15.507513265133257" fill="red" stroke="none" /><path d="M 87.25179093698888 83.31218511350988 l -18.05591797692103 -23.635776234543254 a50.743336937853826,50.743336937853826 0 0,0 0.6967471208916556,-0.5228520288801546 l 17.64751786711862 23.942247290687412" fill="red" stroke="none" /><line stroke="#e1ed5e" stroke-width="0.3" x1="56.869717070023135" x2="54.33264160355391" y1="26.7553504044142" y2="22.446841604673864" /><path d="M 56.362301976729285 25.89364864446614 a86.0,86.0 0 0,1 42.16139366436587,-11.88097634709845" fill="none" id="id24" stroke="none" /><text fill="#e1ed5e" style="font-size:6.75px; font-family:Arial;" text-anchor="middle"><textPath startOffset="22.145653131862474" xlink:href="#id24">December</textPath></text><path d="M 89.34428304082924 81.90426304109057 l -29.206078162301914 -49.598305778149495 a78.55855225494562,78.55855225494562 0 0,0 1.1679319870464955,-0.674305847116465 l 28.35035370739502 50.092358522542135" fill="red" stroke="none" /></svg>